<svg width="912" height="238" viewBox="0 0 912 238" fill="none" xmlns="http://www.w3.org/2000/svg">
<path d="M809.332 165.973C756.818 165.973 723.043 145.109 721.415 114.314C721.326 112.66 722.687 111.33 724.343 111.33H751.843C753.532 111.33 754.864 112.719 755.113 114.389C757.284 129.21 776.951 138.765 807.969 138.765C845.382 138.765 866.017 131.962 866.017 116.998C866.017 74.1437 725.666 123.801 725.666 50.1091C725.666 17.6859 759.902 0.00012207 809.102 0.00012207C859.188 0.00012207 892.672 20.4306 894.92 51.5985C895.037 53.273 893.669 54.643 891.993 54.643H865.185C863.515 54.643 862.185 53.28 861.939 51.6266C859.668 36.5708 840.235 26.9808 810.008 26.9808C777.136 26.9808 758.314 33.7839 758.314 47.3879C758.314 87.2933 898.44 41.039 898.44 115.635C898.44 148.739 863.291 165.971 809.329 165.971L809.332 165.973Z" fill="#16205B"/>
<path d="M562.316 162.352C560.646 162.352 559.288 160.998 559.288 159.326V6.66174C559.288 4.98965 560.644 3.63605 562.316 3.63605H701.831C703.5 3.63605 704.852 4.99199 704.852 6.66174V27.591C704.852 29.2631 703.5 30.6167 701.831 30.6167H594.51C592.84 30.6167 591.489 31.9727 591.489 33.6424V63.4146C591.489 65.0867 592.84 66.4403 594.51 66.4403H690.718C692.388 66.4403 693.746 67.7963 693.746 69.466V88.3532C693.746 90.0253 692.391 91.3789 690.718 91.3789H594.51C592.84 91.3789 591.489 92.7325 591.489 94.4046V159.321C591.489 160.993 590.133 162.347 588.461 162.347H562.316V162.352Z" fill="#16205B"/>
<path d="M405.806 3.63605C407.478 3.63605 408.831 4.98965 408.831 6.66174V116.224L432.06 82.995L486.64 4.92876C487.207 4.11847 488.132 3.63605 489.12 3.63605H517.621C519.293 3.63605 520.646 4.98965 520.646 6.66174V159.326C520.646 160.998 519.293 162.354 517.621 162.354H491.476C489.804 162.354 488.45 160.998 488.45 159.326V64.0141C488.45 61.1008 484.736 59.869 482.996 62.2086L409.384 161.124C408.81 161.895 407.904 162.349 406.941 162.345L406.066 162.34C405.979 162.347 405.892 162.354 405.806 162.354H379.661C377.989 162.354 376.635 160.998 376.635 159.326V64.0141C376.635 61.1008 372.921 59.869 371.181 62.2086L297.564 161.134C296.993 161.902 296.094 162.354 295.136 162.354H270.574C268.127 162.354 266.692 159.598 268.094 157.591L374.825 4.92876C375.392 4.11847 376.317 3.63605 377.305 3.63605H405.806Z" fill="#16205B"/>
<path d="M115.405 127.913C115.199 127.415 113.473 123.323 110.133 120.003C103.719 113.621 95.9651 113.066 94.1689 112.984C63.7808 112.97 33.3927 112.956 3.00462 112.942C1.34657 112.942 0 114.286 0 115.946V132.911C0 134.571 1.34423 135.916 3.00462 135.916H64.0689V135.969C67.2538 135.969 69.8299 138.545 69.8299 141.73C69.8299 143.37 69.1507 144.845 68.05 145.899H68.0805L22.5545 191.425C21.3813 192.598 21.3813 194.5 22.5545 195.673L34.5496 207.668C35.7229 208.841 37.6245 208.841 38.7977 207.668L85.3799 161.086C86.2487 160.561 87.251 160.241 88.3423 160.241C91.5273 160.241 94.1033 162.817 94.1033 166.002H94.2509V227.061C94.2509 228.719 95.5951 230.066 97.2555 230.066H114.22C115.88 230.066 117.225 228.722 117.225 227.061L117.241 135.965C117.241 134.913 116.979 131.703 115.407 127.911L115.405 127.913Z" fill="#16205B"/>
<path d="M221.977 124.43C221.977 124.412 221.629 124.398 221.242 124.386C221.191 124.395 221.132 124.402 221.134 124.414C221.141 124.482 221.977 124.458 221.977 124.43Z" fill="#16205B"/>
<path d="M226.324 120.402C226.306 118.442 226.28 116.489 226.294 114.529C226.301 113.255 226.301 111.538 226.278 109.065V104.386C226.278 104.356 226.261 104.33 226.261 104.26C226.254 104.178 226.214 103.918 226.121 103.604C226.034 103.293 225.905 103.016 225.697 102.703C225.528 102.461 225.343 102.251 225.102 102.056C225.083 102.04 225.062 102.035 225.043 102.021C224.788 101.829 224.519 101.672 224.207 101.569C223.552 101.335 222.978 101.361 222.826 101.375C222.695 101.375 222.563 101.379 222.43 101.382H162.829C161.658 101.393 160.49 101.405 159.319 101.417C153.982 101.417 151.307 94.9627 155.082 91.1876C155.804 90.4663 156.537 89.731 157.279 88.9862C171.623 74.6657 185.965 60.3475 200.309 46.027C201.316 45.02 201.405 43.5025 200.683 42.3432C200.592 42.1629 200.498 41.9896 200.416 41.8749C199.459 40.9077 198.679 40.1255 198.175 39.6173C196.06 37.4909 193.555 34.9663 190.44 31.8798C189.824 31.2709 189.208 30.6596 188.592 30.0508C188.534 29.9758 188.072 29.4466 187.316 29.121C186.969 28.9758 186.583 28.8634 186.11 28.8822C185.735 28.8962 185.414 28.9899 185.129 29.107C185.035 29.1421 184.955 29.203 184.864 29.2498C184.632 29.3763 184.44 29.5004 184.29 29.6316C184.218 29.6901 184.131 29.7159 184.063 29.7814L182.042 31.8025C182.016 31.8282 181.99 31.8517 181.965 31.8774C167.6 46.2424 153.237 60.6075 138.872 74.9725C136.811 77.0333 133.755 77.031 131.748 75.9889C129.544 74.8437 128.87 72.0381 128.643 70.7361C128.645 69.7103 128.645 68.6799 128.659 67.6542V58.8136C128.664 54.8722 128.673 50.9356 128.675 46.9872C128.68 39.2309 128.666 31.5027 128.659 23.7675V6.85454C128.659 6.78663 128.624 6.73042 128.619 6.66251C128.598 6.46345 128.561 6.23395 128.481 5.97634C128.139 4.88269 127.217 4.09348 126.055 3.93189C125.999 3.92018 125.945 3.90613 125.886 3.8991C125.804 3.89208 125.736 3.85226 125.652 3.85226H125.343C125.289 3.84992 125.238 3.83821 125.181 3.83821C124.676 3.82885 123.772 3.81714 122.645 3.80777C118.99 3.77732 117.048 3.8265 112.589 3.83821C111.774 3.83821 110.463 3.8429 108.826 3.83821C108.793 3.83821 108.77 3.85226 108.685 3.85226C108.615 3.85226 108.554 3.88739 108.484 3.89208C108.154 3.92018 107.838 3.96467 107.554 4.07943C107.449 4.12158 107.369 4.19886 107.271 4.25272C107.044 4.37918 106.819 4.50096 106.636 4.68129C106.43 4.87566 106.28 5.11687 106.135 5.36277C106.102 5.42366 106.053 5.46815 106.023 5.52904C105.863 5.84988 105.774 6.19882 105.739 6.57117C105.735 6.60396 105.718 6.62972 105.713 6.69764C105.711 6.7515 105.683 6.79834 105.683 6.8522V7.93648C105.683 8.14023 105.676 8.34163 105.683 8.54537C105.683 8.54537 105.683 67.2935 105.711 67.2935V70.7384C105.711 76.0755 99.2546 78.7499 95.4795 74.9748C81.1145 60.6098 66.7518 46.2448 52.3867 31.8798C52.0776 31.6104 51.7685 31.3411 51.4594 31.0718L50.265 29.8775C49.3329 28.9454 47.9583 28.7862 46.8365 29.3318C46.3283 29.5473 45.9817 29.8283 45.888 29.9173C45.23 30.573 44.5696 31.2264 43.9115 31.8821C43.2979 32.491 42.2792 33.5964 40.5767 35.32L39.1763 36.7204C38.3168 37.5705 37.3238 38.533 36.1763 39.622C35.3754 40.3807 34.729 40.9756 34.3965 41.28C34.1178 41.5751 33.7736 42.0341 33.5394 42.6032C32.9305 43.739 33.064 45.1652 34.0218 46.1254C34.0218 46.1254 35.2583 47.3619 35.2747 47.3829C36.1154 48.3642 36.8929 49.0597 37.3496 49.4531L42.7757 54.8793C42.9935 55.0994 43.209 55.3195 43.4267 55.5373C49.1526 61.2632 54.8761 66.9867 60.602 72.7126C66.3279 78.4385 72.0514 84.162 77.7773 89.8879H117.235C119.172 90.0026 126.547 90.6747 132.778 96.7027C139.45 103.157 140.08 111.178 140.176 112.983V152.289L181.848 193.961C182.295 194.391 182.644 194.75 182.883 194.996C183.194 195.316 183.403 195.546 183.761 195.874C184.086 196.174 184.25 196.324 184.44 196.45C184.44 196.45 184.62 196.567 184.911 196.691C185.021 196.743 185.131 196.771 185.246 196.808C185.463 196.876 185.7 196.935 185.986 196.951C186.136 196.96 186.276 196.944 186.426 196.93C186.562 196.914 186.688 196.888 186.815 196.855C187.349 196.733 187.862 196.518 188.278 196.103L200.273 184.108C201.447 182.935 201.447 181.033 200.273 179.86C200.273 179.86 199.697 179.284 199.674 179.254C199.461 178.996 199.058 178.57 198.62 178.148C198.482 178.015 198.337 177.881 198.168 177.734C197.908 177.504 197.674 177.247 197.423 177.01L193.871 173.457C193.63 173.209 193.393 172.956 193.147 172.71C191.845 171.42 190.651 170.233 189.529 169.113L183.103 162.687C174.951 154.495 174.218 153.575 172.033 151.617C171.354 150.938 170.672 150.257 169.993 149.577C168.462 148.046 166.93 146.514 165.398 144.983C163.904 143.489 163.485 143.058 162.227 141.805C161.071 140.65 161.174 140.76 160.53 140.114C158.19 137.765 158.237 137.73 157.345 136.908C157.092 136.674 156.626 136.25 156.022 135.618C155.523 135.095 155.15 134.648 155.078 134.575C151.303 130.8 153.977 124.346 159.314 124.346C160.312 124.346 161.373 124.346 162.464 124.344C181.777 124.348 201.091 124.353 220.404 124.355C220.606 124.365 220.933 124.374 221.24 124.386C221.296 124.377 221.378 124.365 221.486 124.355H223.266C224.545 124.355 225.62 123.552 226.053 122.428C226.301 121.934 226.329 121.384 226.317 120.402H226.324Z" fill="#16205B"/>
<path d="M275.728 229.733L265.795 202.889H271.701L278.834 222.677L285.583 202.889H290.913L297.624 222.677L304.795 202.889H310.701L300.769 229.733H294.633L288.267 210.827L281.825 229.733H275.728ZM355.444 229.733V202.889H360.889V213.167H378.951V202.889H384.396V229.733H378.951V217.768H360.889V229.733H355.444ZM446.632 230.346C436.891 230.346 430.449 224.748 430.449 216.311C430.449 207.875 436.891 202.276 446.632 202.276C456.333 202.276 462.814 207.875 462.814 216.311C462.814 224.748 456.333 230.346 446.632 230.346ZM446.632 225.745C453.074 225.745 457.369 222.14 457.369 216.311C457.369 210.482 453.074 206.839 446.632 206.839C440.189 206.839 435.894 210.482 435.894 216.311C435.894 222.14 440.189 225.745 446.632 225.745ZM508.903 229.733V202.889H514.349V225.131H533.062V229.733H508.903ZM577.357 229.733V202.889H603.242V207.453H582.802V213.32H600.979V217.538H582.802V225.131H603.242V229.733H577.357ZM663.271 230.346C654.106 230.346 648.316 226.588 648.392 221.105H654.068C654.03 223.904 657.443 225.745 663.041 225.745C669.369 225.745 672.858 224.594 672.858 222.063C672.858 214.816 649.121 223.214 649.121 210.751C649.121 205.267 654.912 202.276 663.233 202.276C671.976 202.276 677.728 205.957 677.767 211.518H672.206C672.206 208.68 668.832 206.839 663.386 206.839C657.826 206.839 654.643 207.99 654.643 210.291C654.643 217.04 678.342 209.217 678.342 221.833C678.342 227.432 672.398 230.346 663.271 230.346ZM720.693 229.733L737.03 202.889H743.625L760 229.733H753.711L750.375 224.057H730.28L726.982 229.733H720.693ZM732.926 219.456H747.729L740.366 206.686L732.926 219.456ZM803.989 229.733V202.889H809.434V225.131H828.148V229.733H803.989ZM872.442 229.733V202.889H898.327V207.453H877.888V213.32H896.065V217.538H877.888V225.131H898.327V229.733H872.442Z" fill="#16205B"/>
</svg>
