<svg xmlns="http://www.w3.org/2000/svg" viewBox="0 0 220 52" fill="none" aria-label="MFS Wholesale">
  <!-- Icon: starburst/asterisk with 4 directional arrow-arms (orange) -->
  <g transform="translate(2, 2)">
    <!-- Horizontal arm left -->
    <path d="M6 24 L18 24 L15 20 L22 24 L15 28 L18 24Z" fill="#EB6619"/>
    <!-- Horizontal arm right -->
    <path d="M42 24 L30 24 L33 20 L26 24 L33 28 L30 24Z" fill="#EB6619"/>
    <!-- Vertical arm top -->
    <path d="M24 6 L24 18 L20 15 L24 22 L28 15 L24 18Z" fill="#EB6619"/>
    <!-- Vertical arm bottom -->
    <path d="M24 42 L24 30 L20 33 L24 26 L28 33 L24 30Z" fill="#EB6619"/>
    <!-- Diagonal TL-BR -->
    <path d="M10 10 L18.5 18.5 L15.5 15 L22 22 L18.5 18.5Z" fill="#EB6619" stroke="#EB6619" strokeWidth="3" strokeLinecap="round"/>
    <!-- Diagonal TR-BL -->
    <path d="M38 10 L29.5 18.5 L32.5 15 L26 22 L29.5 18.5Z" fill="#EB6619" stroke="#EB6619" strokeWidth="3" strokeLinecap="round"/>
    <!-- Diagonal BL-TR -->
    <path d="M10 38 L18.5 29.5 L15.5 33 L22 26 L18.5 29.5Z" fill="#EB6619" stroke="#EB6619" strokeWidth="3" strokeLinecap="round"/>
    <!-- Diagonal BR-TL -->
    <path d="M38 38 L29.5 29.5 L32.5 33 L26 26 L29.5 29.5Z" fill="#EB6619" stroke="#EB6619" strokeWidth="3" strokeLinecap="round"/>
    <!-- Centre dot -->
    <circle cx="24" cy="24" r="3.5" fill="#EB6619"/>
  </g>
  <!-- Wordmark: MFS -->
  <text x="58" y="34" fontFamily="'Inter', 'Helvetica Neue', Arial, sans-serif" fontSize="26" fontWeight="800" letterSpacing="-0.5" fill="white">MFS</text>
  <!-- Sub-wordmark: WHOLESALE -->
  <text x="58" y="47" fontFamily="'Inter', 'Helvetica Neue', Arial, sans-serif" fontSize="9.5" fontWeight="600" letterSpacing="3.5" fill="#EB6619">WHOLESALE</text>
</svg>
